<?xml version="1.0" standalone="no"?>
<!DOCTYPE svg PUBLIC "-//W3C//DTD SVG 20010904//EN"
 "http://www.w3.org/TR/2001/REC-SVG-20010904/DTD/svg10.dtd">
<svg version="1.0" xmlns="http://www.w3.org/2000/svg"
 width="500.000000pt" height="500.000000pt" viewBox="0 0 500.000000 500.000000"
 preserveAspectRatio="xMidYMid meet">

<g transform="translate(0.000000,500.000000) scale(0.100000,-0.100000)"
fill="#000000" stroke="none">
<path d="M3752 4065 c-117 -156 -212 -287 -212 -290 0 -3 36 -5 80 -5 94 0 90
10 59 -143 -107 -528 -358 -1003 -729 -1377 -211 -212 -426 -367 -685 -495
-357 -175 -681 -256 -1090 -272 -198 -7 -289 8 -415 70 -121 59 -241 178 -298
297 -96 199 -96 414 0 609 60 121 178 240 298 298 189 93 431 95 603 7 l27
-15 0 97 c0 186 54 371 152 522 230 352 658 509 1063 390 199 -58 400 -207
510 -376 89 -139 134 -259 155 -422 7 -47 13 -86 15 -88 10 -11 155 310 201
446 27 81 27 83 10 120 -46 96 -153 242 -245 332 -169 168 -378 287 -614 348
-94 25 -118 27 -302 27 -176 0 -211 -3 -295 -24 -112 -28 -215 -67 -323 -123
-279 -145 -533 -448 -623 -743 -10 -33 -19 -61 -19 -63 -1 -1 -50 -7 -109 -13
-316 -32 -591 -198 -767 -463 -61 -92 -106 -196 -142 -326 -17 -61 -20 -104
-20 -230 0 -193 25 -299 107 -465 117 -234 300 -402 550 -501 141 -56 218 -68
431 -67 600 2 1200 196 1694 547 623 442 1052 1106 1206 1865 13 64 26 142 30
174 l7 57 95 0 c86 0 95 2 88 17 -17 46 -271 563 -276 563 -3 0 -101 -128
-217 -285z"/>
<path d="M4780 3480 l0 -40 40 0 40 0 0 40 0 40 -40 0 -40 0 0 -40z"/>
<path d="M4470 3471 c-5 -11 -10 -41 -10 -66 0 -77 9 -85 94 -85 58 0 75 3 80
16 11 28 6 130 -6 142 -7 7 -40 12 -80 12 -56 0 -69 -3 -78 -19z"/>
<path d="M2500 2700 c0 -374 3 -680 6 -680 12 0 192 140 282 219 l92 82 0 530
0 529 -190 0 -190 0 0 -680z"/>
<path d="M4214 3000 c-50 -20 -54 -40 -54 -252 0 -194 0 -197 24 -225 l24 -28
194 -3 c215 -3 232 1 260 58 15 29 18 63 18 200 0 181 -10 222 -60 247 -29 15
-371 17 -406 3z"/>
</g>
</svg>
